<?xml version="1.0" standalone="no"?>
<!DOCTYPE svg PUBLIC "-//W3C//DTD SVG 20010904//EN"
 "http://www.w3.org/TR/2001/REC-SVG-20010904/DTD/svg10.dtd">
<svg version="1.0" xmlns="http://www.w3.org/2000/svg"
 width="256.000000pt" height="256.000000pt" viewBox="0 0 256.000000 256.000000"
 preserveAspectRatio="xMidYMid meet">

<g transform="translate(0.000000,256.000000) scale(0.100000,-0.100000)"
fill="#000000" stroke="none">
<path d="M1272 2398 c-10 -21 -11 -21 -11 -3 -1 15 -12 8 -56 -35 -43 -42 -58
-52 -64 -41 -7 11 -12 9 -24 -10 -8 -13 -18 -34 -22 -46 -7 -25 -20 -30 -31
-11 -20 32 -33 -106 -14 -143 9 -16 7 -21 -15 -29 -25 -10 -33 -34 -15 -45 6
-3 10 -13 10 -21 0 -12 -35 -14 -220 -14 l-220 0 0 -473 0 -473 41 -85 c22
-46 51 -98 65 -116 31 -40 30 -43 -7 -43 -21 0 -49 -14 -90 -46 -32 -26 -59
-50 -59 -54 0 -16 67 -105 120 -159 69 -70 155 -130 253 -177 72 -34 209 -74
254 -74 18 0 23 -5 23 -24 0 -14 -5 -28 -10 -31 -17 -11 -11 -22 35 -71 40
-42 48 -46 77 -40 42 8 100 72 92 101 -18 64 -21 61 57 75 228 40 428 168 553
354 14 21 26 42 26 46 0 4 -27 28 -59 54 -41 32 -69 46 -90 46 l-31 0 47 72
c26 40 59 104 75 143 l27 70 1 453 0 452 -235 0 c-186 0 -235 3 -235 13 0 7 5
18 10 23 15 15 2 42 -23 46 -14 2 -20 9 -18 18 2 8 8 31 14 50 5 20 7 54 3 75
-7 36 -9 38 -21 22 -11 -16 -14 -13 -24 27 -12 47 -28 66 -40 47 -5 -7 -19 3
-40 29 -35 44 -46 48 -55 24 -9 -23 3 -37 19 -24 11 9 20 3 41 -30 25 -37 29
-40 40 -25 11 15 14 12 23 -22 6 -21 11 -46 11 -55 0 -21 16 -24 23 -5 3 6 6
-5 6 -26 1 -21 -6 -51 -14 -67 -26 -50 -30 -33 -8 28 3 6 -2 12 -10 12 -10 0
-16 16 -21 50 -7 51 -13 59 -33 39 -8 -8 -13 -3 -18 20 -8 38 -20 39 -38 5
l-14 -26 -21 36 c-12 20 -26 36 -31 36 -5 0 -15 -17 -22 -37 l-12 -36 -17 33
-18 34 -21 -34 c-11 -19 -23 -39 -25 -45 -2 -5 -11 -1 -19 10 -15 20 -16 19
-26 -8 -6 -16 -11 -35 -11 -43 0 -14 -12 -19 -22 -8 -5 5 28 103 38 114 3 2 9
-2 14 -10 7 -11 19 -2 55 38 44 49 48 51 61 35 13 -17 14 -17 20 5 7 25 15 27
32 10 7 -7 12 -8 12 -2 0 6 -8 18 -18 28 -18 15 -19 15 -30 -6z m58 -178 c4 0
13 12 20 28 l13 27 11 -38 c11 -35 12 -36 29 -20 16 16 17 15 17 -24 0 -28 5
-45 16 -51 13 -7 14 -13 5 -31 -11 -20 -18 -21 -170 -21 l-158 0 -11 25 c-15
33 -15 46 -1 43 6 -2 17 15 23 37 9 30 13 36 19 23 10 -28 27 -21 43 19 l16
36 24 -26 c14 -15 27 -27 29 -27 2 0 9 19 16 43 l11 42 21 -42 c12 -24 24 -43
27 -43z m-256 -47 c1 -21 5 -51 9 -68 6 -25 4 -24 -13 10 -19 40 -26 86 -13
98 11 11 16 0 17 -40z m431 -123 c-4 -6 -92 -10 -230 -10 -138 0 -226 4 -230
10 -4 7 75 10 230 10 155 0 234 -3 230 -10z m-123 -37 c-62 -2 -161 -2 -220 0
-59 1 -8 3 113 3 121 0 169 -2 107 -3z m576 -481 l2 -443 -24 -60 c-53 -131
-150 -255 -269 -345 -78 -58 -211 -125 -306 -154 -70 -22 -74 -22 -134 -5 -80
22 -228 92 -304 143 -118 80 -225 205 -279 327 l-24 56 0 464 0 465 668 -2
667 -3 3 -443z m-1201 -754 c31 -29 29 -38 -11 -38 -25 0 -38 6 -50 25 -21 32
-21 35 11 35 15 0 37 -10 50 -22z m1123 14 c0 -23 -34 -52 -61 -52 -35 0 -36
6 -7 37 20 22 68 32 68 15z m-1197 -32 c27 -45 124 -146 163 -171 32 -20 33
-22 17 -34 -18 -14 -37 -10 -28 5 3 5 1 11 -5 15 -5 3 -10 1 -10 -6 0 -7 -11
-2 -25 11 -14 13 -23 30 -20 38 3 10 0 12 -10 8 -16 -6 -69 46 -114 112 -19
28 -21 36 -10 43 21 13 23 12 42 -21z m1235 17 c8 -10 -2 -30 -40 -81 -29 -38
-60 -71 -70 -74 -10 -2 -16 -8 -13 -12 10 -16 -16 -22 -32 -8 -14 11 -15 10
-9 -10 5 -13 3 -22 -3 -22 -6 0 -11 5 -11 11 0 5 -4 8 -10 4 -5 -3 -7 -12 -4
-19 3 -8 1 -17 -5 -21 -6 -3 -14 1 -17 9 -4 11 17 38 67 85 41 38 85 87 99
110 27 44 32 47 48 28z m-888 -202 c27 -14 74 -34 105 -46 41 -15 55 -25 55
-40 0 -22 -20 -24 -88 -8 -52 13 -195 77 -227 102 -19 15 -16 16 43 17 48 0
75 -6 112 -25z m655 9 c-39 -30 -153 -83 -212 -98 -79 -21 -93 -20 -93 3 0 13
16 25 58 40 31 12 77 33 102 46 33 18 61 24 105 24 56 0 59 -1 40 -15z m10
-55 c-5 -6 -12 -6 -23 3 -13 11 -15 10 -9 -4 3 -10 2 -20 -3 -23 -6 -4 -10 -1
-10 4 0 6 -7 11 -16 11 -13 0 -14 -3 -5 -14 9 -10 8 -15 -3 -19 -9 -4 -20 1
-26 11 -10 15 -11 14 -7 -4 4 -18 -3 -24 -35 -35 -32 -10 -41 -10 -47 0 -6 9
-10 6 -16 -11 -6 -19 -8 -20 -12 -5 -6 21 -23 23 -23 2 0 -24 -29 -30 -44 -10
-12 17 -13 16 -21 -6 -6 -20 -8 -21 -12 -6 -2 9 -9 17 -15 17 -5 0 -8 -7 -4
-15 8 -21 -14 -19 -31 3 -14 16 -14 16 -9 0 5 -16 -3 -18 -65 -18 -59 0 -70 3
-65 15 3 8 1 15 -4 15 -6 0 -10 -6 -10 -14 0 -11 -11 -11 -64 2 -45 11 -63 19
-59 29 3 7 1 13 -5 13 -6 0 -12 -5 -14 -11 -2 -7 -13 -9 -25 -5 -14 4 -20 12
-16 22 3 7 1 14 -5 14 -6 0 -12 -5 -14 -12 -2 -6 -10 -8 -17 -4 -7 5 -10 14
-7 22 3 8 1 14 -3 14 -5 0 -11 -5 -13 -11 -6 -18 -38 2 -38 25 0 17 -2 18 -10
6 -5 -8 -12 -12 -15 -9 -7 8 5 41 14 36 64 -35 173 -80 223 -92 35 -8 111 -15
169 -15 129 0 229 23 332 77 55 29 74 35 80 26 4 -7 5 -18 2 -24z m-348 -53
c-2 -6 -31 -12 -65 -14 -47 -2 -62 0 -62 11 0 10 17 13 65 13 42 0 64 -4 62
-10z m238 -46 c3 -5 1 -10 -4 -10 -6 0 -11 5 -11 10 0 6 2 10 4 10 3 0 8 -4
11 -10z m-495 -30 c0 -5 -2 -10 -4 -10 -3 0 -8 5 -11 10 -3 6 -1 10 4 10 6 0
11 -4 11 -10z m30 -10 c0 -5 -5 -10 -11 -10 -5 0 -7 5 -4 10 3 6 8 10 11 10 2
0 4 -4 4 -10z m297 -12 c-3 -8 -6 -5 -6 6 -1 11 2 17 5 13 3 -3 4 -12 1 -19z
m-192 3 c3 -5 1 -12 -5 -16 -5 -3 -10 1 -10 9 0 18 6 21 15 7z m165 -1 c0 -5
-4 -10 -10 -10 -5 0 -10 5 -10 10 0 6 5 10 10 10 6 0 10 -4 10 -10z m-40 -105
c0 -12 -14 -15 -65 -15 -51 0 -65 3 -65 15 0 12 14 15 65 15 51 0 65 -3 65
-15z m10 -45 c0 -6 -34 -10 -81 -10 -51 0 -78 4 -74 10 3 6 40 10 81 10 43 0
74 -4 74 -10z m-52 -37 c-16 -2 -40 -2 -55 0 -16 2 -3 4 27 4 30 0 43 -2 28
-4z m-5 -30 c-7 -2 -21 -2 -30 0 -10 3 -4 5 12 5 17 0 24 -2 18 -5z"/>
<path d="M918 1948 c7 -7 12 -24 12 -39 0 -28 15 -39 55 -39 40 0 55 11 55 39
0 15 5 32 12 39 9 9 5 12 -19 12 -31 0 -32 -1 -26 -36 5 -32 4 -36 -13 -32
-20 3 -33 48 -15 48 6 0 11 5 11 10 0 6 -19 10 -42 10 -33 0 -39 -3 -30 -12z"/>
<path d="M1080 1945 c7 -9 10 -27 6 -45 -5 -27 -3 -30 19 -30 23 0 25 3 19 28
l-7 27 22 -27 c23 -29 59 -37 65 -15 3 6 7 27 10 45 5 31 4 32 -26 32 -25 0
-29 -3 -20 -12 7 -7 12 -18 12 -26 0 -9 -8 -4 -21 12 -15 19 -30 26 -56 26
-30 0 -34 -2 -23 -15z"/>
<path d="M1235 1915 l0 -45 63 0 c55 0 62 2 62 20 0 21 -15 27 -25 10 -8 -13
-45 -13 -45 0 0 5 7 7 15 4 11 -4 15 0 15 16 0 18 3 20 13 11 15 -12 27 -5 27
16 0 9 -17 13 -62 13 l-63 0 0 -45z"/>
<path d="M1385 1915 c0 -44 1 -45 33 -45 29 0 32 3 27 20 -5 15 -3 18 9 14 12
-4 16 0 17 17 0 13 3 18 6 12 8 -20 23 -15 23 7 0 18 -7 20 -57 20 l-58 0 0
-45z"/>
<path d="M1535 1923 c-11 -21 -21 -41 -23 -45 -2 -5 8 -8 23 -8 20 0 26 4 21
15 -4 10 1 15 14 15 13 0 18 -5 14 -15 -5 -12 2 -15 30 -15 20 0 36 5 36 10 0
6 -4 10 -9 10 -5 0 -15 16 -21 35 -9 29 -17 35 -39 35 -21 0 -31 -8 -46 -37z"/>
<path d="M670 1840 c0 -14 7 -20 23 -20 18 0 19 2 7 10 -10 6 -11 10 -2 10 6
0 12 5 12 10 0 6 -9 10 -20 10 -13 0 -20 -7 -20 -20z"/>
<path d="M765 1568 c-11 -431 -10 -443 47 -559 54 -110 127 -193 227 -257 70
-46 206 -102 246 -102 44 0 183 59 260 111 97 65 166 144 218 248 l42 84 3
384 3 383 -520 0 -519 0 -7 -292z m483 231 c10 0 12 -3 5 -6 -7 -2 -13 -13
-13 -22 0 -13 -8 -18 -30 -18 -20 0 -29 5 -26 12 2 7 -1 18 -7 24 -8 8 -7 11
5 11 9 0 19 8 23 18 6 16 7 16 16 0 6 -10 18 -18 27 -19z m140 0 c10 0 12 -3
5 -6 -7 -2 -13 -13 -13 -22 0 -13 -8 -18 -30 -18 -20 0 -29 5 -26 12 2 7 -1
18 -7 24 -8 8 -7 11 5 11 9 0 19 8 23 18 6 16 7 16 16 0 6 -10 18 -18 27 -19z
m-268 -19 c10 0 10 -3 0 -15 -6 -8 -9 -19 -6 -24 4 -5 -6 -9 -22 -9 -19 1 -31
8 -39 24 -9 19 -8 24 3 24 8 0 17 7 21 16 6 16 7 16 18 0 7 -9 18 -16 25 -16z
m390 0 c10 0 10 -3 0 -15 -6 -8 -9 -18 -6 -23 3 -5 -7 -9 -22 -9 -20 0 -31 8
-39 24 -9 18 -8 23 3 23 8 0 17 7 21 16 6 16 7 16 18 0 7 -9 18 -16 25 -16z
m-530 -20 c0 -5 7 -10 16 -10 11 0 14 -5 10 -16 -3 -9 -6 -21 -6 -27 0 -7 -14
-12 -30 -12 -20 0 -29 4 -26 12 3 7 1 15 -4 18 -15 9 -12 25 5 25 8 0 15 5 15
10 0 6 5 10 10 10 6 0 10 -4 10 -10z m643 -10 c16 0 18 -3 9 -12 -7 -7 -12
-19 -12 -27 0 -11 -10 -16 -30 -17 -25 -1 -29 2 -25 17 4 11 2 19 -4 19 -6 0
-11 3 -11 8 0 10 44 29 48 20 2 -5 13 -8 25 -8z m-704 -84 c-5 -6 -9 -17 -9
-25 0 -11 -10 -16 -29 -17 -23 -1 -27 3 -24 18 3 10 0 18 -6 18 -19 0 -12 15
12 25 26 12 72 -4 56 -19z m811 2 c0 -5 -5 -8 -11 -8 -6 0 -9 -8 -7 -18 4 -15
-1 -18 -27 -18 -25 0 -31 4 -28 17 3 9 -1 20 -7 24 -21 13 32 32 57 20 13 -5
23 -13 23 -17z m-466 -29 c53 -41 56 -64 63 -441 l6 -349 -148 3 -149 3 -101
363 c-56 199 -99 364 -97 367 3 3 32 5 64 5 40 0 72 7 100 21 72 37 111 48
174 48 48 1 67 -4 88 -20z m269 2 c21 -10 54 -33 75 -51 20 -17 57 -46 82 -63
34 -25 46 -40 48 -64 3 -28 -51 -228 -139 -517 l-31 -99 -96 7 c-53 4 -97 8
-98 9 -2 1 -7 47 -13 102 l-10 100 5 -107 c3 -74 1 -108 -6 -108 -8 0 -10 61
-8 198 3 188 4 198 19 173 11 -17 13 -30 7 -38 -12 -15 -2 -33 18 -33 31 0 94
-40 94 -60 0 -11 6 -20 14 -20 20 0 67 40 60 51 -3 5 -2 8 3 7 15 -4 52 22 58
42 3 11 12 20 19 20 14 0 36 56 36 93 0 15 5 27 11 27 6 0 9 9 6 20 -3 10 1
27 9 37 18 24 18 97 0 112 -12 10 -20 9 -40 -4 -16 -11 -35 -15 -51 -11 -21 5
-25 12 -25 44 0 45 -14 62 -51 62 -33 0 -45 -15 -29 -35 8 -9 8 -15 0 -20 -8
-5 -8 -11 1 -21 19 -23 -3 -16 -50 16 -55 38 -88 39 -101 4 -12 -32 -13 -74
-1 -93 7 -12 14 -5 26 27 10 23 19 42 22 42 2 0 17 -7 34 -15 43 -23 93 -8 96
28 1 15 -2 29 -8 32 -5 4 -9 10 -9 14 0 7 17 8 53 2 5 0 6 -19 2 -41 -6 -36
-4 -41 20 -52 20 -9 33 -9 59 0 49 18 56 15 56 -23 0 -39 -17 -48 -22 -12 -2
17 -9 21 -28 19 -14 -2 -38 -3 -55 -3 -29 -1 -29 -1 -7 -12 17 -8 32 -8 53 0
27 10 29 9 29 -11 0 -12 5 -27 11 -33 8 -8 8 -13 -1 -18 -7 -4 -14 1 -17 14
-5 21 -23 30 -23 12 0 -11 -91 19 -113 37 -8 7 -42 14 -76 17 -54 3 -62 2 -57
-11 3 -9 6 -20 6 -25 0 -4 7 -6 15 -3 13 5 13 2 0 -30 -8 -19 -15 -46 -16 -58
0 -13 -3 -18 -5 -11 -3 7 -12 9 -20 6 -16 -6 -20 32 -4 42 16 10 12 25 -5 19
-10 -4 -15 0 -15 14 0 12 -4 24 -10 27 -16 10 -12 132 6 168 31 60 53 77 104
77 25 0 62 -8 83 -19z m-91 -137 c49 -34 41 -43 -12 -15 -45 23 -60 21 -60
-10 0 -10 -5 -19 -11 -19 -6 0 -8 7 -5 16 3 9 6 24 6 35 0 28 36 24 82 -7z
m91 -106 c46 -62 29 -204 -29 -230 -24 -11 -29 -10 -54 19 -66 74 -38 250 38
241 14 -2 34 -15 45 -30z m86 -23 c45 -25 46 -27 43 -65 -4 -40 -21 -56 -23
-22 -1 11 -4 9 -9 -8 -7 -23 -8 -22 -9 10 -1 35 -15 32 -24 -5 -3 -11 -5 0 -6
25 -1 27 -5 40 -9 32 -6 -8 -12 -1 -19 23 -13 43 -7 44 56 10z m-267 -45 c3
-17 1 -33 -4 -36 -4 -3 -8 11 -8 30 0 44 6 47 12 6z m48 -57 c-1 -15 -27 -43
-33 -36 -15 15 -6 43 13 43 11 0 20 -3 20 -7z m218 -29 c13 -4 22 -14 22 -25
0 -26 -22 -24 -48 6 -22 26 -16 30 26 19z m-199 -34 c11 -34 6 -38 -20 -14
-10 9 -15 22 -12 30 8 22 20 16 32 -16z m182 -38 c-5 -9 -31 -26 -58 -38 l-48
-20 -40 23 c-22 12 -33 23 -25 23 9 0 25 -7 38 -15 18 -13 25 -14 44 -3 13 7
32 13 43 13 17 0 19 6 17 40 l-4 40 22 -22 c15 -17 18 -27 11 -41z m-191 -8
c0 -2 -9 -4 -20 -4 -11 0 -20 4 -20 9 0 5 9 7 20 4 11 -3 20 -7 20 -9z m114
-69 c-10 -8 -23 -14 -29 -14 -5 0 -1 6 9 14 11 8 24 15 30 15 5 0 1 -7 -10
-15z"/>
<path d="M1151 1646 c2 -2 22 -6 44 -9 27 -4 35 -3 25 3 -14 9 -79 15 -69 6z"/>
<path d="M1050 1610 c-8 -5 -10 -10 -5 -10 6 0 17 5 25 10 8 5 11 10 5 10 -5
0 -17 -5 -25 -10z"/>
<path d="M923 1573 c9 -2 25 -2 35 0 9 3 1 5 -18 5 -19 0 -27 -2 -17 -5z"/>
<path d="M984 1542 c-68 -44 -74 -54 -74 -118 0 -61 20 -104 69 -146 22 -19
41 -40 41 -46 0 -7 3 -11 8 -10 7 1 27 -5 67 -22 11 -5 30 -12 43 -15 12 -4
22 -11 22 -16 0 -16 21 -10 42 14 l20 22 -5 -22 c-7 -33 8 -28 23 7 7 17 16
30 21 30 12 0 12 37 0 44 -12 8 -20 60 -25 156 -3 41 -7 83 -11 92 -7 18 -87
52 -146 63 -28 5 -44 -1 -95 -33z m46 -7 c-8 -9 -8 -15 -2 -15 6 0 14 5 17 10
4 6 14 9 23 8 9 -2 16 2 15 9 -2 9 5 9 28 1 20 -7 27 -13 19 -18 -9 -6 -9 -9
-1 -15 7 -4 17 -2 24 3 18 14 47 11 47 -5 0 -7 -4 -13 -10 -13 -18 0 -10 -27
13 -43 15 -11 18 -16 7 -17 -8 0 -25 -9 -38 -20 l-23 -19 20 -40 c17 -37 18
-41 3 -41 -15 -1 -15 -2 1 -14 9 -7 17 -16 17 -20 0 -3 -8 -6 -17 -7 -12 -1
-10 -4 7 -9 24 -8 24 -8 3 -9 -13 -1 -23 -6 -23 -12 0 -7 11 -8 30 -4 37 8 40
-7 5 -23 -36 -17 -45 -15 -72 10 -19 17 -23 19 -17 5 5 -14 1 -17 -22 -17 -22
0 -35 9 -52 36 -12 19 -27 32 -32 29 -6 -3 -7 1 -4 9 8 20 14 20 40 2 13 -10
25 -11 35 -5 11 7 11 9 -4 9 -10 0 -34 12 -53 26 -27 21 -32 30 -23 40 9 11 7
14 -9 14 -30 0 -35 -15 -12 -35 11 -10 20 -21 20 -26 0 -4 -14 6 -31 22 -17
16 -29 34 -26 41 2 7 0 21 -5 31 -6 11 -4 25 4 40 7 12 12 26 13 31 0 5 9 14
19 20 11 6 31 21 45 33 27 24 42 23 21 -2z m197 -151 c4 -10 -1 -22 -11 -29
-11 -8 -13 -15 -7 -20 13 -7 15 -35 3 -35 -11 0 -43 80 -37 91 10 15 45 10 52
-7z"/>
<path d="M975 1460 c-3 -6 4 -10 17 -10 22 -1 22 -1 -7 -27 -16 -15 -22 -24
-12 -20 9 4 24 10 34 14 11 4 14 3 9 -5 -4 -7 -3 -12 3 -12 20 0 22 20 4 45
-19 26 -38 32 -48 15z"/>
<path d="M1041 1397 c-9 -12 -6 -18 13 -31 31 -20 42 -20 50 -1 3 8 13 15 22
15 8 0 14 6 12 13 -6 18 -82 21 -97 4z m37 -10 c14 4 14 3 3 -5 -17 -12 -43
-4 -34 11 5 8 8 8 10 0 3 -7 12 -9 21 -6z"/>
<path d="M1125 1260 c-3 -6 1 -7 9 -4 18 7 21 14 7 14 -6 0 -13 -4 -16 -10z"/>
<path d="M1271 1203 c-1 -7 -20 -31 -43 -55 l-43 -42 38 28 c20 15 41 25 46
21 15 -9 22 11 12 37 -6 12 -10 18 -10 11z"/>
<path d="M1030 1189 c0 -5 8 -9 19 -9 10 0 39 -22 65 -50 51 -55 52 -56 53
-37 0 6 4 21 8 32 6 19 6 19 -5 1 -11 -17 -15 -15 -54 22 -39 38 -86 60 -86
41z"/>
<path d="M1010 1177 c0 -11 8 -17 24 -17 16 0 32 -11 46 -31 12 -16 24 -28 27
-25 9 8 -41 66 -57 66 -9 0 -21 5 -28 12 -9 9 -12 8 -12 -5z"/>
<path d="M1010 1131 c0 -6 7 -8 15 -5 9 4 24 -4 36 -17 l21 -24 -15 25 c-14
25 -57 41 -57 21z"/>
<path d="M1600 1556 c0 -2 8 -10 18 -17 15 -13 16 -12 3 4 -13 16 -21 21 -21
13z"/>
<path d="M1440 1300 c-12 -7 -12 -10 -1 -10 8 0 11 -6 6 -17 -5 -14 -3 -15 5
-7 18 18 9 46 -10 34z"/>
<path d="M1870 1850 c-13 -9 -13 -11 0 -20 22 -15 30 -12 30 10 0 22 -8 25
-30 10z"/>
<path d="M670 1790 c0 -13 7 -20 18 -20 11 0 18 8 19 20 1 14 -4 20 -18 20
-12 0 -19 -7 -19 -20z"/>
<path d="M1863 1790 c-1 -13 4 -20 15 -20 16 -1 16 -1 0 -11 -23 -13 -23 -29
-1 -29 15 0 14 -2 -3 -15 -19 -14 -18 -14 4 -15 20 0 22 5 22 55 0 46 -3 55
-18 55 -11 0 -18 -8 -19 -20z"/>
<path d="M670 1750 c0 -5 9 -10 20 -10 11 0 20 5 20 10 0 6 -9 10 -20 10 -11
0 -20 -4 -20 -10z"/>
<path d="M674 1719 c-3 -6 0 -15 7 -20 22 -13 28 -11 26 11 -1 22 -21 27 -33
9z"/>
<path d="M1860 1670 c0 -13 7 -20 20 -20 13 0 20 7 20 20 0 13 -7 20 -20 20
-13 0 -20 -7 -20 -20z"/>
<path d="M670 1665 c0 -8 9 -15 20 -15 11 0 20 7 20 15 0 8 -9 15 -20 15 -11
0 -20 -7 -20 -15z"/>
<path d="M673 1622 c-1 -11 6 -18 18 -19 13 -1 19 5 19 18 0 25 -35 26 -37 1z"/>
<path d="M1864 1629 c-3 -6 0 -15 7 -20 22 -14 29 -11 29 11 0 21 -24 27 -36
9z"/>
<path d="M1860 1590 c0 -5 6 -10 13 -10 8 0 7 -4 -3 -10 -13 -8 -13 -10 2 -10
23 0 34 20 17 31 -19 12 -29 11 -29 -1z"/>
<path d="M670 1575 c0 -8 9 -15 20 -15 11 0 20 7 20 15 0 8 -9 15 -20 15 -11
0 -20 -7 -20 -15z"/>
<path d="M670 1540 c0 -5 9 -10 20 -10 11 0 20 5 20 10 0 6 -9 10 -20 10 -11
0 -20 -4 -20 -10z"/>
<path d="M1860 1540 c0 -5 7 -10 15 -10 8 0 15 -4 15 -10 0 -5 -7 -10 -15 -10
-8 0 -15 -4 -15 -10 0 -5 6 -10 13 -10 8 0 8 -3 -2 -9 -17 -11 -7 -41 13 -41
15 0 28 24 18 35 -3 3 -5 22 -3 41 2 29 -1 34 -18 34 -12 0 -21 -4 -21 -10z"/>
<path d="M672 1480 c-1 -42 3 -46 28 -30 12 8 13 11 1 19 -9 6 -10 11 -2 15
18 11 13 36 -8 36 -15 0 -19 -8 -19 -40z"/>
<path d="M670 1409 c0 -25 33 -22 38 4 2 12 -3 17 -17 17 -15 0 -21 -6 -21
-21z"/>
<path d="M1862 1413 c5 -26 38 -29 38 -4 0 15 -6 21 -21 21 -14 0 -19 -5 -17
-17z"/>
<path d="M673 1340 c-1 -13 4 -20 17 -20 13 0 18 7 17 20 -1 11 -8 20 -17 20
-9 0 -16 -9 -17 -20z"/>
<path d="M1867 1353 c-12 -12 -7 -23 11 -23 16 -1 16 -1 0 -11 -10 -5 -18 -17
-18 -24 0 -8 8 -15 18 -15 16 -1 16 -1 0 -11 -10 -5 -18 -14 -18 -19 0 -6 8
-10 18 -10 14 0 14 -2 3 -9 -8 -5 -16 -19 -18 -30 -2 -15 3 -21 17 -21 19 0
20 7 20 90 0 68 -3 90 -13 90 -8 0 -17 -3 -20 -7z"/>
<path d="M672 1270 c0 -22 5 -40 10 -40 5 0 6 5 3 10 -3 6 -2 10 4 10 5 0 12
-6 14 -12 3 -8 6 -7 6 4 1 9 -4 20 -10 24 -8 5 -8 9 1 14 15 9 4 30 -15 30 -9
0 -14 -12 -13 -40z"/>
<path d="M672 1185 c-1 -20 -4 -40 -7 -45 -4 -6 -1 -10 5 -10 6 0 8 -4 5 -10
-3 -5 2 -10 13 -10 16 0 18 8 19 55 0 45 -3 55 -17 55 -12 0 -17 -9 -18 -35z"/>
<path d="M1862 1151 c-3 -8 0 -17 7 -19 11 -4 11 -6 1 -12 -15 -9 -4 -30 16
-30 10 0 14 12 14 38 0 29 -4 39 -16 39 -9 0 -19 -7 -22 -16z"/>
<path d="M684 1084 c3 -9 6 -17 6 -20 0 -2 7 -1 15 2 23 9 18 34 -6 34 -15 0
-19 -4 -15 -16z"/>
<path d="M697 1054 c-8 -8 3 -34 15 -34 5 0 7 4 3 9 -3 6 3 14 12 20 17 10 16
10 -3 11 -11 0 -23 -3 -27 -6z"/>
<path d="M1840 1051 c0 -5 6 -14 14 -20 11 -9 15 -8 20 5 9 23 8 24 -14 24
-11 0 -20 -4 -20 -9z"/>
<path d="M1826 1022 c-4 -7 -2 -20 6 -29 11 -15 11 -16 -5 -10 -21 8 -35 -19
-19 -35 12 -12 31 3 51 40 10 18 9 22 -3 22 -8 0 -16 5 -18 12 -3 9 -6 9 -12
0z"/>
<path d="M731 1001 c-8 -5 -11 -16 -8 -25 5 -13 11 -15 26 -6 12 6 18 16 15
25 -7 17 -13 18 -33 6z"/>
<path d="M752 961 c-10 -6 -11 -13 -1 -34 12 -26 45 -42 55 -26 10 16 -7 30
-29 24 -19 -5 -20 -4 -6 7 9 7 14 19 12 26 -5 14 -13 15 -31 3z"/>
<path d="M1777 929 c-13 -18 -14 -26 -4 -38 9 -11 9 -13 0 -8 -19 12 -55 -24
-41 -40 16 -19 27 -16 21 6 -4 15 1 20 19 23 12 2 21 6 18 10 -3 4 4 14 15 22
18 14 19 16 4 31 -15 16 -18 15 -32 -6z"/>
<path d="M800 885 c-18 -22 0 -39 24 -22 15 11 16 15 3 25 -11 10 -17 9 -27
-3z"/>
<path d="M822 848 c-7 -9 -6 -17 3 -25 10 -10 16 -9 25 2 12 14 6 35 -9 35 -5
0 -13 -6 -19 -12z"/>
<path d="M855 819 c-4 -6 -5 -13 -2 -16 7 -7 27 6 27 18 0 12 -17 12 -25 -2z"/>
<path d="M1684 804 c9 -23 -3 -37 -20 -23 -8 7 -14 7 -14 1 0 -5 6 -15 13 -21
10 -8 20 -4 40 17 29 30 27 42 -6 42 -13 0 -17 -5 -13 -16z"/>
<path d="M872 797 c-8 -9 -2 -20 19 -41 28 -28 30 -29 47 -12 16 16 16 18 0
27 -9 5 -24 16 -32 24 -18 18 -21 18 -34 2z"/>
<path d="M1605 750 c-3 -5 -4 -14 -1 -19 4 -5 -2 -7 -13 -4 -24 6 -37 -15 -20
-32 12 -11 19 -10 42 9 19 15 26 28 21 39 -7 19 -20 22 -29 7z"/>
<path d="M946 733 c-8 -20 12 -35 36 -27 14 4 16 1 11 -13 -6 -16 -5 -17 13
-3 10 8 21 16 23 17 2 2 -10 8 -27 14 -18 6 -32 15 -32 20 0 15 -18 10 -24 -8z"/>
<path d="M1028 689 c-26 -14 -22 -23 16 -41 l34 -16 0 26 c0 24 -2 24 -14 8
-12 -16 -13 -16 -16 8 -2 20 -6 23 -20 15z"/>
<path d="M1517 693 c-4 -3 -7 -15 -7 -25 0 -11 -7 -18 -17 -17 -11 0 -13 3 -5
6 6 2 9 9 6 14 -9 16 -34 -10 -27 -29 4 -13 2 -12 -11 3 -17 20 -17 20 -11 -5
4 -14 3 -20 -2 -14 -13 18 -43 13 -43 -7 0 -10 5 -21 10 -24 6 -3 10 -1 10 4
0 6 3 10 8 9 10 -3 122 54 122 62 0 12 -26 30 -33 23z"/>
<path d="M1116 634 c-9 -22 -8 -23 14 -17 11 3 20 12 20 19 0 19 -26 18 -34
-2z"/>
<path d="M1155 620 c-10 -16 6 -32 25 -27 11 3 21 -1 24 -9 9 -24 23 -15 18
11 -2 14 -8 22 -12 20 -5 -3 -11 -1 -15 5 -8 13 -32 13 -40 0z"/>
<path d="M1362 617 c-16 -19 2 -42 24 -32 18 8 18 8 0 13 -14 3 -15 6 -6 12 7
5 8 10 2 14 -5 3 -14 0 -20 -7z"/>
<path d="M1318 608 c-7 -19 2 -38 18 -38 18 0 18 24 0 39 -10 9 -15 8 -18 -1z"/>
<path d="M1247 604 c-4 -4 -7 -17 -7 -28 1 -19 1 -20 11 -3 11 19 8 43 -4 31z"/>
<path d="M1270 580 c0 -24 15 -27 24 -4 9 22 8 24 -9 24 -8 0 -15 -9 -15 -20z"/>
<path d="M740 650 c0 -5 5 -10 10 -10 6 0 10 5 10 10 0 6 -4 10 -10 10 -5 0
-10 -4 -10 -10z"/>
<path d="M795 600 c-3 -5 -1 -10 4 -10 6 0 11 5 11 10 0 6 -2 10 -4 10 -3 0
-8 -4 -11 -10z"/>
<path d="M1810 649 c0 -5 5 -7 10 -4 6 3 10 8 10 11 0 2 -4 4 -10 4 -5 0 -10
-5 -10 -11z"/>
<path d="M1085 450 c3 -5 8 -10 11 -10 2 0 4 5 4 10 0 6 -5 10 -11 10 -5 0 -7
-4 -4 -10z"/>
<path d="M1215 430 c-3 -5 -1 -10 4 -10 6 0 11 5 11 10 0 6 -2 10 -4 10 -3 0
-8 -4 -11 -10z"/>
<path d="M1250 430 c0 -5 5 -10 10 -10 6 0 10 5 10 10 0 6 -4 10 -10 10 -5 0
-10 -4 -10 -10z"/>
</g>
</svg>
