<?xml version="1.0" standalone="no"?>
<!DOCTYPE svg PUBLIC "-//W3C//DTD SVG 20010904//EN"
 "http://www.w3.org/TR/2001/REC-SVG-20010904/DTD/svg10.dtd">
<svg version="1.0" xmlns="http://www.w3.org/2000/svg"
 width="300.000000pt" height="107.000000pt" viewBox="0 0 300.000000 107.000000"
 preserveAspectRatio="xMidYMid meet">

<g transform="translate(0.000000,107.000000) scale(0.100000,-0.100000)"
fill="#000000" stroke="none">
<path d="M360 1042 c-14 -2 -33 -12 -42 -22 -16 -17 -18 -49 -17 -347 0 -324
0 -328 -22 -345 -49 -40 -79 -21 -193 125 -38 48 -71 87 -73 87 -1 0 -3 -49
-3 -109 l0 -109 111 -138 c60 -77 117 -145 126 -152 25 -18 66 -15 86 8 16 19
17 51 16 347 -1 325 0 328 21 345 47 38 78 18 198 -124 l92 -110 0 109 0 109
-124 152 c-149 182 -145 178 -176 174z"/>
<path d="M720 1029 c-13 -9 -15 -56 -12 -338 l3 -328 -27 -26 c-53 -53 -76
-40 -195 110 l-94 117 -3 -112 -3 -113 129 -157 c129 -158 145 -171 196 -158
21 5 21 6 21 340 0 313 1 335 19 355 10 11 23 18 27 15 5 -3 9 0 9 5 0 6 9 11
20 11 11 0 20 -4 20 -10 0 -5 5 -9 11 -7 10 2 39 -29 177 -188 l44 -50 -7 115
-6 115 -101 125 c-138 171 -157 190 -187 189 -15 0 -33 -5 -41 -10z"/>
<path d="M20 907 l0 -117 120 -146 120 -145 0 116 0 116 -99 122 c-54 67 -108
133 -119 147 l-21 25 -1 -118z"/>
<path d="M2392 851 c-11 -7 -11 -9 0 -14 9 -3 15 1 15 9 0 8 -1 14 -1 14 -1 0
-7 -4 -14 -9z"/>
<path d="M1168 767 c-3 -91 3 -105 58 -133 24 -13 32 -13 60 1 45 21 64 64 64
147 0 54 -3 68 -15 68 -12 0 -15 -15 -15 -72 0 -95 -14 -122 -63 -125 -53 -3
-67 22 -67 119 0 104 -18 100 -22 -5z"/>
<path d="M1608 843 c7 -3 16 -2 19 1 4 3 -2 6 -13 5 -11 0 -14 -3 -6 -6z"/>
<path d="M2580 821 c0 -16 -7 -36 -15 -44 -13 -13 -13 -16 1 -21 12 -5 15 -18
12 -58 -2 -34 1 -52 10 -55 9 -4 12 21 12 101 0 64 -4 106 -10 106 -5 0 -10
-13 -10 -29z"/>
<path d="M2970 816 c0 -19 -4 -36 -10 -38 -6 -2 -6 -16 2 -40 9 -31 8 -41 -6
-63 -10 -15 -15 -29 -12 -33 3 -3 6 -2 6 1 0 4 10 3 23 -2 l22 -9 -3 109 c-2
60 -7 109 -13 109 -5 0 -9 -15 -9 -34z"/>
<path d="M1410 723 c0 -49 4 -83 10 -83 6 0 10 23 10 51 0 28 5 60 11 71 7 13
7 18 1 14 -6 -4 -15 2 -21 11 -8 14 -10 -3 -11 -64z"/>
<path d="M1601 720 c-2 -66 1 -80 13 -80 13 0 16 14 16 80 0 61 -3 80 -14 80
-10 0 -14 -20 -15 -80z"/>
<path d="M1684 783 c0 -10 4 -20 8 -23 3 -3 8 -14 10 -25 1 -11 6 -22 10 -25
3 -3 8 -14 10 -25 4 -25 25 -48 39 -43 6 2 22 30 34 61 34 82 38 97 26 97 -6
0 -13 -11 -17 -25 -3 -14 -9 -25 -13 -25 -3 0 -7 -12 -8 -26 0 -15 -7 -30 -14
-34 -15 -10 -43 15 -34 30 3 5 2 10 -2 10 -5 0 -15 16 -22 35 -13 37 -30 47
-27 18z"/>
<path d="M2072 720 c1 -47 3 -69 5 -50 2 19 7 42 10 50 8 18 10 27 12 41 0 5
6 7 11 4 6 -3 10 -2 10 4 0 5 6 11 13 14 6 2 -1 2 -17 -1 -17 -2 -32 1 -37 9
-5 9 -8 -20 -7 -71z"/>
<path d="M2380 721 c0 -62 3 -80 16 -85 8 -3 13 -2 10 2 -3 5 -6 43 -7 85 -3
101 -19 100 -19 -2z"/>
<path d="M1470 780 c0 -7 6 -10 14 -7 24 10 34 -15 33 -79 -2 -47 1 -60 11
-57 9 4 12 26 10 77 l-3 71 -32 3 c-20 2 -33 -1 -33 -8z"/>
<path d="M1896 777 c-10 -7 -21 -31 -25 -53 -6 -32 -4 -43 13 -60 37 -37 56
-43 89 -26 18 9 26 17 18 20 -7 2 -18 -1 -24 -7 -18 -18 -45 -13 -61 11 -9 12
-16 26 -16 30 0 5 27 8 59 8 39 0 61 4 64 13 4 12 -19 56 -38 69 -16 12 -60 9
-79 -5z m80 -18 c23 -24 7 -49 -31 -49 -44 0 -64 24 -41 49 19 21 50 21 72 0z"/>
<path d="M2195 774 c-9 -9 -14 -23 -11 -31 3 -8 6 -16 6 -18 0 -3 19 -9 42
-15 56 -16 73 -33 50 -53 -9 -8 -26 -17 -37 -19 -11 -2 -15 -6 -10 -9 6 -4 25
0 43 7 23 10 32 21 32 37 0 27 -28 54 -52 49 -10 -2 -18 2 -18 8 0 6 -4 9 -9
6 -12 -8 -34 21 -26 34 3 6 11 8 16 5 5 -4 9 -1 9 4 0 16 -16 13 -35 -5z"/>
<path d="M2260 780 c20 -13 43 -13 35 0 -3 6 -16 10 -28 10 -18 0 -19 -2 -7
-10z"/>
<path d="M2476 774 c-30 -29 -23 -102 12 -131 33 -28 50 -19 17 10 -27 24 -45
77 -25 77 6 0 8 5 5 10 -10 17 16 41 36 35 11 -4 19 -2 19 4 0 17 -47 13 -64
-5z"/>
<path d="M2677 784 c-12 -12 -8 -26 6 -17 6 4 24 8 40 9 31 2 53 -26 35 -44
-8 -8 -8 -15 1 -26 9 -11 10 -20 2 -35 -15 -27 -14 -31 7 -31 15 0 16 8 12 72
l-5 73 -45 3 c-25 2 -49 0 -53 -4z"/>
<path d="M2854 768 c-28 -33 -24 -78 8 -110 30 -30 51 -37 42 -13 -4 8 -10 13
-15 10 -12 -8 -29 29 -29 61 0 32 26 65 45 58 7 -3 16 -1 20 5 13 22 -51 11
-71 -11z"/>
<path d="M2667 703 c-13 -13 -7 -61 9 -67 31 -12 37 -6 16 14 -18 17 -20 25
-12 40 10 19 1 28 -13 13z"/>
<path d="M2195 650 c3 -5 11 -10 16 -10 6 0 7 5 4 10 -3 6 -11 10 -16 10 -6 0
-7 -4 -4 -10z"/>
<path d="M790 450 l1 -105 120 -140 c66 -77 127 -147 134 -155 13 -12 15 -2
15 82 l0 96 -121 148 c-67 82 -128 156 -135 164 -12 12 -14 -1 -14 -90z"/>
<path d="M1170 440 c0 -120 17 -153 22 -42 4 87 19 88 72 0 31 -51 47 -67 64
-68 21 0 22 3 22 108 0 90 -3 109 -15 109 -12 0 -15 -15 -15 -74 0 -100 -20
-99 -78 2 -62 106 -72 101 -72 -35z"/>
<path d="M1780 541 c0 -5 7 -12 16 -15 14 -5 15 -4 4 9 -14 17 -20 19 -20 6z"/>
<path d="M2440 438 c0 -89 3 -108 15 -108 12 0 15 19 15 108 0 90 -3 109 -15
109 -12 0 -15 -19 -15 -109z"/>
<path d="M1793 483 c-9 -3 -13 -29 -13 -78 0 -49 4 -74 13 -78 9 -3 12 16 12
79 0 46 0 84 0 83 0 0 -6 -3 -12 -6z"/>
<path d="M1931 482 c-66 -6 -90 -50 -67 -119 11 -34 59 -46 107 -26 22 8 38
17 36 20 -3 2 -1 19 3 38 4 19 5 35 1 37 -3 2 -15 14 -26 28 -16 20 -27 24
-54 22z m43 -34 c9 -12 16 -32 16 -43 0 -25 -28 -67 -40 -60 -4 3 -10 1 -12
-5 -2 -6 -12 -5 -27 3 -29 14 -50 65 -31 77 6 4 11 10 11 14 -3 14 25 35 46
36 12 0 29 -10 37 -22z"/>
<path d="M1415 471 c-3 -5 -1 -12 4 -15 5 -4 13 -2 16 4 9 14 46 9 63 -8 12
-11 12 -15 0 -29 -10 -13 -10 -17 0 -20 15 -6 16 -35 0 -51 -9 -9 -7 -13 6
-18 25 -10 30 1 27 59 -4 75 -13 87 -66 87 -24 0 -46 -4 -50 -9z"/>
<path d="M1614 472 c-22 -15 -44 -74 -33 -88 6 -7 8 -17 5 -22 -9 -15 60 -43
88 -36 37 9 50 28 31 44 -13 10 -15 11 -13 1 2 -7 -6 -19 -17 -27 -18 -12 -24
-12 -43 2 -12 8 -20 20 -17 25 4 5 1 9 -4 9 -16 0 -13 42 4 67 15 21 47 25 74
9 7 -4 15 -5 19 -1 18 18 -69 34 -94 17z"/>
<path d="M2070 407 c0 -51 4 -76 13 -80 9 -3 12 12 11 57 -1 33 3 68 9 76 6 8
7 12 3 8 -5 -4 -15 -3 -23 3 -11 9 -13 -2 -13 -64z"/>
<path d="M2150 467 c22 -11 25 -20 28 -75 4 -81 22 -81 22 1 0 69 -10 87 -49
87 l-26 0 25 -13z"/>
<path d="M2277 473 c-15 -14 -6 -23 13 -13 24 13 50 10 68 -8 12 -10 12 -15 1
-28 -10 -13 -10 -17 1 -24 11 -7 11 -14 3 -32 -12 -28 -7 -49 11 -42 14 5 15
121 2 143 -8 12 -88 15 -99 4z"/>
<path d="M1413 393 c-20 -7 -15 -51 6 -63 28 -15 35 -12 20 6 -18 22 -21 47
-6 56 13 8 -1 9 -20 1z"/>
<path d="M2267 393 c-15 -14 -6 -53 14 -63 27 -15 34 -7 13 14 -9 9 -14 25
-11 36 5 20 -3 26 -16 13z"/>
<path d="M1235 230 c-3 -11 -11 -20 -16 -20 -6 0 -8 -4 -5 -9 6 -10 -34 -114
-46 -119 -4 -2 -5 -9 -2 -16 3 -8 -2 -21 -11 -30 -15 -15 -14 -16 10 -16 16 0
24 4 20 11 -13 20 26 49 68 49 42 0 82 -31 73 -57 -7 -17 -1 -16 18 3 15 14
15 17 0 31 -8 9 -13 21 -10 29 3 7 1 14 -4 16 -4 2 -10 12 -12 23 -1 11 -7 23
-11 26 -4 3 -9 16 -10 27 -1 12 -4 22 -8 22 -4 0 -10 11 -13 25 -8 30 -32 33
-41 5z m48 -82 c19 -47 12 -58 -34 -58 -26 0 -48 27 -32 39 4 3 8 12 9 19 1 6
2 19 3 27 3 32 38 15 54 -27z"/>
<path d="M1410 135 c0 -89 3 -113 13 -109 9 3 13 36 14 114 2 90 0 110 -12
110 -12 0 -15 -21 -15 -115z"/>
<path d="M1603 235 c0 -8 6 -15 14 -15 7 0 13 7 13 15 0 8 -6 15 -13 15 -8 0
-14 -7 -14 -15z"/>
<path d="M2013 213 c-7 -3 -13 -13 -13 -24 0 -19 -28 -25 -97 -21 -22 1 -23
-3 -23 -74 0 -43 4 -74 10 -74 6 0 10 21 10 48 0 63 19 90 65 90 l35 0 0 -58
c0 -49 4 -61 22 -74 21 -15 38 -13 38 5 0 5 -7 9 -15 9 -23 0 -21 108 1 117
15 6 15 7 2 17 -9 6 -17 19 -19 27 -2 9 -10 14 -16 12z"/>
<path d="M1460 159 c0 -5 5 -7 10 -4 6 3 10 8 10 11 0 2 -4 4 -10 4 -5 0 -10
-5 -10 -11z"/>
<path d="M1490 159 c0 -5 4 -8 9 -4 15 8 28 -25 26 -66 -2 -40 -12 -62 -26
-54 -5 4 -9 -1 -9 -9 0 -18 29 -11 48 12 17 22 15 97 -4 116 -18 18 -44 21
-44 5z"/>
<path d="M1600 95 c0 -60 3 -75 15 -75 12 0 15 15 15 75 0 60 -3 75 -15 75
-12 0 -15 -15 -15 -75z"/>
<path d="M1705 152 c-23 -19 -28 -89 -8 -109 30 -33 113 -35 113 -3 0 6 -11 3
-25 -6 -22 -15 -27 -15 -48 -1 -18 12 -22 23 -22 59 1 47 11 72 26 63 5 -4 9
-1 9 4 0 16 -22 13 -45 -7z"/>
<path d="M1788 143 c17 -17 22 -28 14 -31 -13 -4 -7 -22 8 -22 19 0 14 46 -7
63 -33 27 -45 20 -15 -10z"/>
<path d="M2125 161 c-3 -6 4 -9 15 -8 11 1 20 5 20 9 0 11 -28 10 -35 -1z"/>
<path d="M2200 150 c20 -20 20 -22 4 -38 -17 -16 -17 -17 0 -20 17 -4 15 -33
-5 -57 -5 -7 0 -11 14 -13 21 -1 22 1 17 71 -5 66 -7 72 -28 75 l-24 4 22 -22z"/>
<path d="M2110 70 c-8 -15 -6 -24 10 -40 18 -18 40 -27 40 -15 0 2 -10 13 -22
24 -17 17 -19 23 -8 36 8 10 9 15 2 15 -6 0 -16 -9 -22 -20z"/>
</g>
</svg>
